<?xml version="1.0" standalone="no"?>
<!DOCTYPE svg PUBLIC "-//W3C//DTD SVG 20010904//EN"
 "http://www.w3.org/TR/2001/REC-SVG-20010904/DTD/svg10.dtd">
<svg version="1.0" xmlns="http://www.w3.org/2000/svg"
 width="64.000000pt" height="64.000000pt" viewBox="0 0 64.000000 64.000000"
 preserveAspectRatio="xMidYMid meet">

<g transform="translate(0.000000,64.000000) scale(0.100000,-0.100000)"
fill="#000000" stroke="none">
<path d="M235 595 c-51 -18 -120 -91 -134 -141 -33 -118 14 -277 107 -365 l46
-44 -46 51 c-87 97 -127 239 -97 347 5 20 12 37 15 37 3 0 19 -13 34 -30 21
-23 37 -30 64 -30 65 0 126 38 126 78 0 5 -25 7 -55 4 -52 -4 -54 -4 -61 24
-6 23 -2 32 22 51 24 20 37 23 77 20 26 -2 56 -12 67 -22 11 -10 30 -23 42
-29 40 -20 59 -61 75 -156 15 -88 15 -94 -2 -106 -9 -7 -14 -17 -10 -23 3 -6
-3 -24 -14 -40 -12 -16 -21 -34 -21 -39 0 -17 -89 -116 -117 -131 -16 -8 -40
-11 -62 -7 -25 4 -31 2 -21 -4 41 -27 98 -3 161 68 70 78 101 145 107 227 6
99 -10 150 -67 206 -66 67 -148 85 -236 54z"/>
<path d="M145 300 c-9 -17 -13 -35 -9 -41 8 -14 104 -59 125 -59 14 0 39 38
39 60 0 5 -26 18 -57 30 -32 12 -63 26 -70 31 -8 8 -16 2 -28 -21z m15 -11
c-14 -26 -15 -25 57 -55 32 -13 51 -24 43 -24 -18 0 -120 47 -120 55 0 10 20
45 26 45 2 0 0 -9 -6 -21z m67 -10 c17 -17 5 -43 -13 -28 -15 12 -19 39 -6 39
4 0 13 -5 19 -11z m48 -29 c3 -5 1 -10 -4 -10 -6 0 -11 5 -11 10 0 6 2 10 4
10 3 0 8 -4 11 -10z"/>
<path d="M466 322 c-3 -5 -33 -19 -66 -31 -64 -24 -66 -26 -48 -66 14 -31 29
-31 94 -1 46 22 51 26 49 55 -2 34 -19 59 -29 43z m22 -37 c-3 -3 -9 2 -12 12
-6 14 -5 15 5 6 7 -7 10 -15 7 -18z m-48 -9 c0 -7 -6 -19 -14 -25 -18 -15 -30
11 -13 28 15 15 27 14 27 -3z m-60 -26 c0 -5 -5 -10 -11 -10 -5 0 -7 5 -4 10
3 6 8 10 11 10 2 0 4 -4 4 -10z m65 -16 c-27 -13 -57 -24 -65 -24 -16 1 88 48
105 48 6 0 -12 -10 -40 -24z"/>
<path d="M285 120 c-11 -18 10 -32 41 -28 40 4 38 32 -3 36 -17 2 -34 -2 -38
-8z m58 -12 c-2 -5 -13 -8 -23 -8 -10 0 -21 3 -23 8 -3 4 8 7 23 7 15 0 26 -3
23 -7z"/>
</g>
</svg>
